<?xml version="1.0" encoding="UTF-8"?><svg id="a" xmlns="http://www.w3.org/2000/svg" viewBox="0 0 1290.32 1351.05"><defs><style>.b{stroke:#0d4d97;stroke-miterlimit:10;stroke-width:7px;}.b,.c{fill:#0d4d97;}</style></defs><path class="c" d="M467.87,1145.11c-.51,11.31-1.67,21.5-5.49,32.17-78.88-84.21-106.54-190.03-98.49-302.23,14.99,12.13,28.15,22.14,43.95,30.7,1.83,13.68,1.38,26.6,2.09,40.2,3.59,69.08,20.94,140.2,57.95,199.16Z"/><path class="c" d="M823.72,1145.11c.51,11.31,1.67,21.5,5.49,32.17,78.88-84.21,106.54-190.03,98.49-302.23-14.99,12.13-28.15,22.14-43.95,30.7-1.83,13.68-1.38,26.6-2.09,40.2-3.59,69.08-20.94,140.2-57.95,199.16Z"/><circle class="c" cx="809.17" cy="739.05" r="54.65"/><path class="b" d="M971.82,298.14l-324.3-124.36-322.21,122.82c-6.43,2.46-8.95,5.75-8.19,12.09.57,4.81,4.02,6.67,9.44,8.6l146.28,52.3.15,44.64c5.73,3.14,12.44,5.35,18.06,7.64.77.33,1.56.62,2.35.96l-.15-45.89,145.8,52.1c5.88,2.72,11,2.33,16.94.2l144.48-51.86.04,46.79c.51-.29,1.07-.55,1.63-.79,6.14-2.42,12.38-5.09,18.48-7.86l-.18-45.43c7.5-2.72,14.18-5.78,21.71-7.85.56-.37,1.17-.71,1.85-.98,4.92-2.02,9.94-3.51,15.02-4.83,1.05-.33,2.12-.61,3.19-.91,6.57-3.35,13.91-6.27,21.2-8.14l88.2-31.86c5.82-2.11,6.91-14.81.22-17.36Z"/><circle class="c" cx="482.46" cy="738.93" r="54.59"/><circle class="c" cx="809.17" cy="739.05" r="54.65"/><path class="c" d="M935.47,547.81c-1.87-1.83-2.4-4.02-2.6-5.75-.04-.37,35.82-24.15,36.04-60.33l.71-115.74-80.75,41.26v.11s-100.23,47.92-100.23,47.92c-18.22,7.05-35.61,13.96-52.88,23.27-38.5,17.85-67.54,47.23-87.34,84.89-5.74-4.14-8.1-9.55-11.3-14.95-11.74-19.78-26.48-36.5-44.75-50.62-29.83-20.09-61.76-33.88-96.86-45-.5-.14-1-.29-1.49-.48-.18-.06-.36-.12-.54-.17v-.05c-1.87-.78-3.64-1.86-5.39-2.96-2.34-.93-4.62-2.02-6.81-3.29-5-2.07-9.83-4.39-14.2-7.12-17.98-7.79-33.75-16.91-50.93-25.42l-94.3-46.66-.23,113.88c-.07,35.07,36,59.06,36.46,61.67.39,2.22-.21,4.47-2.23,6.31-26.58,24.18-45.74,54.84-55.42,89.62-6.57,23.6-4.72,21.24-7.94,45.13-1.05,7.82.14,13.15,1.25,20.39,5.3,34.51,15.86,67.81,37.28,95.81,31.78,41.55,76.74,68.08,128.01,77.75,26.28,4.96,51.13,11.55,74.33,25,57.73,33.47,86.31,94.6,112.15,153.74,10.14-22.18,17.05-42.91,28.83-62.52,17.09-28.46,35.46-55.47,61.49-75.87,58.29-45.71,110.3-35.06,155.94-59.42,42.18-22.51,75.62-58.11,93.19-102.98,29.83-76.19,7.69-151.56-49.49-207.42ZM482.46,824.04c-74.76,0-135.36-62.09-135.36-138.68s60.6-138.68,135.36-138.68,135.36,62.09,135.36,138.68-60.6,138.68-135.36,138.68ZM678.21,795.17l-2.39,4.17c-4.65,9.49-15.36,30.81-24.07,42.02l-5.9,10.3c-.04.08-.13.12-.21.12-.08,0-.16-.05-.2-.12l-7.63-13.23c-7.81-12.54-16.06-24.73-22.03-38.19l-1.53-2.65c-4.23-6.12-6.71-13.54-6.71-21.54,0-20.94,16.98-37.92,37.92-37.92s37.92,16.98,37.92,37.92c0,6.98-1.88,13.51-5.17,19.13ZM913.85,771.77c-34.11,41.52-86.2,59.15-138.99,45.52-41.76-10.78-73.42-39.59-89.11-76.32-8.12-17.54-12.69-37.09-12.69-57.73,0-75.42,60.6-136.56,135.36-136.56,1.71,0,3.39.07,5.08.13,0-.02,0-.03,0-.05.17.02.35.04.52.06,66.75,2.75,121,54.24,128.76,120.15,1.04,5.64,1.6,11.52,1.43,17.75-.86,31.12-10.23,62.53-30.38,87.05Z"/><circle class="c" cx="809.17" cy="739.05" r="54.65"/><path class="b" d="M971.82,298.14l-324.3-124.36-322.21,122.82c-6.43,2.46-8.95,5.75-8.19,12.09.57,4.81,4.02,6.67,9.44,8.6l146.28,52.3.15,44.64c5.73,3.14,12.44,5.35,18.06,7.64.77.33,1.56.62,2.35.96l-.15-45.89,145.8,52.1c5.88,2.72,11,2.33,16.94.2l144.48-51.86.04,46.79c.51-.29,1.07-.55,1.63-.79,6.14-2.42,12.38-5.09,18.48-7.86l-.18-45.43c7.5-2.72,14.18-5.78,21.71-7.85.56-.37,1.17-.71,1.85-.98,4.92-2.02,9.94-3.51,15.02-4.83,1.05-.33,2.12-.61,3.19-.91,6.57-3.35,13.91-6.27,21.2-8.14l88.2-31.86c5.82-2.11,6.91-14.81.22-17.36Z"/><circle class="c" cx="482.46" cy="738.93" r="54.59"/><circle class="c" cx="809.17" cy="739.05" r="54.65"/><path class="c" d="M935.47,547.81c-1.87-1.83-2.4-4.02-2.6-5.75-.04-.37,35.82-24.15,36.04-60.33l.71-115.74-80.75,41.26v.11s-100.23,47.92-100.23,47.92c-18.22,7.05-35.61,13.96-52.88,23.27-38.5,17.85-67.54,47.23-87.34,84.89-5.74-4.14-8.1-9.55-11.3-14.95-11.74-19.78-26.48-36.5-44.75-50.62-29.83-20.09-61.76-33.88-96.86-45-.5-.14-1-.29-1.49-.48-.18-.06-.36-.12-.54-.17v-.05c-1.87-.78-3.64-1.86-5.39-2.96-2.34-.93-4.62-2.02-6.81-3.29-5-2.07-9.83-4.39-14.2-7.12-17.98-7.79-33.75-16.91-50.93-25.42l-94.3-46.66-.23,113.88c-.07,35.07,36,59.06,36.46,61.67.39,2.22-.21,4.47-2.23,6.31-26.58,24.18-45.74,54.84-55.42,89.62-6.57,23.6-4.72,21.24-7.94,45.13-1.05,7.82.14,13.15,1.25,20.39,5.3,34.51,15.86,67.81,37.28,95.81,31.78,41.55,76.74,68.08,128.01,77.75,26.28,4.96,51.13,11.55,74.33,25,57.73,33.47,86.31,94.6,112.15,153.74,10.14-22.18,17.05-42.91,28.83-62.52,17.09-28.46,35.46-55.47,61.49-75.87,58.29-45.71,110.3-35.06,155.94-59.42,42.18-22.51,75.62-58.11,93.19-102.98,29.83-76.19,7.69-151.56-49.49-207.42ZM482.46,824.04c-74.76,0-135.36-62.09-135.36-138.68s60.6-138.68,135.36-138.68,135.36,62.09,135.36,138.68-60.6,138.68-135.36,138.68ZM678.21,795.17l-2.39,4.17c-4.65,9.49-15.36,30.81-24.07,42.02l-5.9,10.3c-.04.08-.13.12-.21.12-.08,0-.16-.05-.2-.12l-7.63-13.23c-7.81-12.54-16.06-24.73-22.03-38.19l-1.53-2.65c-4.23-6.12-6.71-13.54-6.71-21.54,0-20.94,16.98-37.92,37.92-37.92s37.92,16.98,37.92,37.92c0,6.98-1.88,13.51-5.17,19.13ZM913.85,771.77c-34.11,41.52-86.2,59.15-138.99,45.52-41.76-10.78-73.42-39.59-89.11-76.32-8.12-17.54-12.69-37.09-12.69-57.73,0-75.42,60.6-136.56,135.36-136.56,1.71,0,3.39.07,5.08.13,0-.02,0-.03,0-.05.17.02.35.04.52.06,66.75,2.75,121,54.24,128.76,120.15,1.04,5.64,1.6,11.52,1.43,17.75-.86,31.12-10.23,62.53-30.38,87.05Z"/></svg>